<mxfile host="app.diagrams.net" agent="Mozilla/5.0 (Windows NT 10.0; Win64; x64) AppleWebKit/537.36 (KHTML, like Gecko) Chrome/135.0.0.0 Safari/537.36" version="26.2.9">
  <diagram name="PÃ¡gina-1" id="3S0XZ3HKJU-GFdph-Nkk">
    <mxGraphModel dx="2507" dy="2083" grid="1" gridSize="10" guides="1" tooltips="1" connect="1" arrows="1" fold="1" page="1" pageScale="1" pageWidth="827" pageHeight="1169" math="0" shadow="0">
      <root>
        <mxCell id="0" />
        <mxCell id="1" parent="0" />
        <mxCell id="fC2aXZ93NajQi_3qFE1q-211" value="" style="rounded=0;whiteSpace=wrap;html=1;fillColor=light-dark(#FFFFFF,#FFFDFB);movable=0;resizable=0;rotatable=0;deletable=0;editable=0;locked=1;connectable=0;" vertex="1" parent="1">
          <mxGeometry x="-179" y="-120" width="1029" height="1090" as="geometry" />
        </mxCell>
        <mxCell id="fC2aXZ93NajQi_3qFE1q-18" value="" style="group" vertex="1" connectable="0" parent="1">
          <mxGeometry x="370" y="110" width="460" height="70" as="geometry" />
        </mxCell>
        <mxCell id="fC2aXZ93NajQi_3qFE1q-19" value="" style="fontColor=#0066CC;verticalAlign=top;verticalLabelPosition=bottom;labelPosition=center;align=center;html=1;outlineConnect=0;fillColor=#CCCCCC;strokeColor=#6881B3;gradientColor=none;gradientDirection=north;strokeWidth=2;shape=mxgraph.networks.pc;" vertex="1" parent="fC2aXZ93NajQi_3qFE1q-18">
          <mxGeometry width="57.14" height="40" as="geometry" />
        </mxCell>
        <mxCell id="fC2aXZ93NajQi_3qFE1q-20" value="" style="fontColor=#0066CC;verticalAlign=top;verticalLabelPosition=bottom;labelPosition=center;align=center;html=1;outlineConnect=0;fillColor=#CCCCCC;strokeColor=#6881B3;gradientColor=none;gradientDirection=north;strokeWidth=2;shape=mxgraph.networks.desktop_pc;" vertex="1" parent="fC2aXZ93NajQi_3qFE1q-18">
          <mxGeometry x="61" width="20" height="40" as="geometry" />
        </mxCell>
        <mxCell id="fC2aXZ93NajQi_3qFE1q-8" value="" style="group" vertex="1" connectable="0" parent="1">
          <mxGeometry x="730" y="110" width="81" height="40" as="geometry" />
        </mxCell>
        <mxCell id="fC2aXZ93NajQi_3qFE1q-6" value="" style="fontColor=#0066CC;verticalAlign=top;verticalLabelPosition=bottom;labelPosition=center;align=center;html=1;outlineConnect=0;fillColor=#CCCCCC;strokeColor=#6881B3;gradientColor=none;gradientDirection=north;strokeWidth=2;shape=mxgraph.networks.pc;" vertex="1" parent="fC2aXZ93NajQi_3qFE1q-8">
          <mxGeometry width="57.14" height="40" as="geometry" />
        </mxCell>
        <mxCell id="fC2aXZ93NajQi_3qFE1q-7" value="" style="fontColor=#0066CC;verticalAlign=top;verticalLabelPosition=bottom;labelPosition=center;align=center;html=1;outlineConnect=0;fillColor=#CCCCCC;strokeColor=#6881B3;gradientColor=none;gradientDirection=north;strokeWidth=2;shape=mxgraph.networks.desktop_pc;" vertex="1" parent="fC2aXZ93NajQi_3qFE1q-8">
          <mxGeometry x="61" width="20" height="40" as="geometry" />
        </mxCell>
        <mxCell id="fC2aXZ93NajQi_3qFE1q-9" value="" style="group" vertex="1" connectable="0" parent="1">
          <mxGeometry x="640" y="110" width="81" height="40" as="geometry" />
        </mxCell>
        <mxCell id="fC2aXZ93NajQi_3qFE1q-10" value="" style="fontColor=#0066CC;verticalAlign=top;verticalLabelPosition=bottom;labelPosition=center;align=center;html=1;outlineConnect=0;fillColor=#CCCCCC;strokeColor=#6881B3;gradientColor=none;gradientDirection=north;strokeWidth=2;shape=mxgraph.networks.pc;" vertex="1" parent="fC2aXZ93NajQi_3qFE1q-9">
          <mxGeometry width="57.14" height="40" as="geometry" />
        </mxCell>
        <mxCell id="fC2aXZ93NajQi_3qFE1q-11" value="" style="fontColor=#0066CC;verticalAlign=top;verticalLabelPosition=bottom;labelPosition=center;align=center;html=1;outlineConnect=0;fillColor=#CCCCCC;strokeColor=#6881B3;gradientColor=none;gradientDirection=north;strokeWidth=2;shape=mxgraph.networks.desktop_pc;" vertex="1" parent="fC2aXZ93NajQi_3qFE1q-9">
          <mxGeometry x="61" width="20" height="40" as="geometry" />
        </mxCell>
        <mxCell id="fC2aXZ93NajQi_3qFE1q-12" value="" style="group" vertex="1" connectable="0" parent="1">
          <mxGeometry x="550" y="110" width="81" height="40" as="geometry" />
        </mxCell>
        <mxCell id="fC2aXZ93NajQi_3qFE1q-13" value="" style="fontColor=#0066CC;verticalAlign=top;verticalLabelPosition=bottom;labelPosition=center;align=center;html=1;outlineConnect=0;fillColor=#CCCCCC;strokeColor=#6881B3;gradientColor=none;gradientDirection=north;strokeWidth=2;shape=mxgraph.networks.pc;" vertex="1" parent="fC2aXZ93NajQi_3qFE1q-12">
          <mxGeometry width="57.14" height="40" as="geometry" />
        </mxCell>
        <mxCell id="fC2aXZ93NajQi_3qFE1q-14" value="" style="fontColor=#0066CC;verticalAlign=top;verticalLabelPosition=bottom;labelPosition=center;align=center;html=1;outlineConnect=0;fillColor=#CCCCCC;strokeColor=#6881B3;gradientColor=none;gradientDirection=north;strokeWidth=2;shape=mxgraph.networks.desktop_pc;" vertex="1" parent="fC2aXZ93NajQi_3qFE1q-12">
          <mxGeometry x="61" width="20" height="40" as="geometry" />
        </mxCell>
        <mxCell id="fC2aXZ93NajQi_3qFE1q-15" value="" style="group" vertex="1" connectable="0" parent="1">
          <mxGeometry x="460" y="110" width="81" height="40" as="geometry" />
        </mxCell>
        <mxCell id="fC2aXZ93NajQi_3qFE1q-16" value="" style="fontColor=#0066CC;verticalAlign=top;verticalLabelPosition=bottom;labelPosition=center;align=center;html=1;outlineConnect=0;fillColor=#CCCCCC;strokeColor=#6881B3;gradientColor=none;gradientDirection=north;strokeWidth=2;shape=mxgraph.networks.pc;" vertex="1" parent="fC2aXZ93NajQi_3qFE1q-15">
          <mxGeometry width="57.14" height="40" as="geometry" />
        </mxCell>
        <mxCell id="fC2aXZ93NajQi_3qFE1q-17" value="" style="fontColor=#0066CC;verticalAlign=top;verticalLabelPosition=bottom;labelPosition=center;align=center;html=1;outlineConnect=0;fillColor=#CCCCCC;strokeColor=#6881B3;gradientColor=none;gradientDirection=north;strokeWidth=2;shape=mxgraph.networks.desktop_pc;" vertex="1" parent="fC2aXZ93NajQi_3qFE1q-15">
          <mxGeometry x="61" width="20" height="40" as="geometry" />
        </mxCell>
        <mxCell id="fC2aXZ93NajQi_3qFE1q-54" value="" style="group" vertex="1" connectable="0" parent="1">
          <mxGeometry x="370" y="280" width="460" height="70" as="geometry" />
        </mxCell>
        <mxCell id="fC2aXZ93NajQi_3qFE1q-56" value="" style="fontColor=#0066CC;verticalAlign=top;verticalLabelPosition=bottom;labelPosition=center;align=center;html=1;outlineConnect=0;fillColor=#CCCCCC;strokeColor=#6881B3;gradientColor=none;gradientDirection=north;strokeWidth=2;shape=mxgraph.networks.pc;" vertex="1" parent="fC2aXZ93NajQi_3qFE1q-54">
          <mxGeometry width="57.14" height="40" as="geometry" />
        </mxCell>
        <mxCell id="fC2aXZ93NajQi_3qFE1q-57" value="" style="fontColor=#0066CC;verticalAlign=top;verticalLabelPosition=bottom;labelPosition=center;align=center;html=1;outlineConnect=0;fillColor=#CCCCCC;strokeColor=#6881B3;gradientColor=none;gradientDirection=north;strokeWidth=2;shape=mxgraph.networks.desktop_pc;" vertex="1" parent="fC2aXZ93NajQi_3qFE1q-54">
          <mxGeometry x="61" width="20" height="40" as="geometry" />
        </mxCell>
        <mxCell id="fC2aXZ93NajQi_3qFE1q-58" value="" style="group" vertex="1" connectable="0" parent="1">
          <mxGeometry x="730" y="280" width="81" height="40" as="geometry" />
        </mxCell>
        <mxCell id="fC2aXZ93NajQi_3qFE1q-59" value="" style="fontColor=#0066CC;verticalAlign=top;verticalLabelPosition=bottom;labelPosition=center;align=center;html=1;outlineConnect=0;fillColor=#CCCCCC;strokeColor=#6881B3;gradientColor=none;gradientDirection=north;strokeWidth=2;shape=mxgraph.networks.pc;" vertex="1" parent="fC2aXZ93NajQi_3qFE1q-58">
          <mxGeometry width="57.14" height="40" as="geometry" />
        </mxCell>
        <mxCell id="fC2aXZ93NajQi_3qFE1q-60" value="" style="fontColor=#0066CC;verticalAlign=top;verticalLabelPosition=bottom;labelPosition=center;align=center;html=1;outlineConnect=0;fillColor=#CCCCCC;strokeColor=#6881B3;gradientColor=none;gradientDirection=north;strokeWidth=2;shape=mxgraph.networks.desktop_pc;" vertex="1" parent="fC2aXZ93NajQi_3qFE1q-58">
          <mxGeometry x="61" width="20" height="40" as="geometry" />
        </mxCell>
        <mxCell id="fC2aXZ93NajQi_3qFE1q-61" value="" style="group" vertex="1" connectable="0" parent="1">
          <mxGeometry x="640" y="280" width="81" height="40" as="geometry" />
        </mxCell>
        <mxCell id="fC2aXZ93NajQi_3qFE1q-62" value="" style="fontColor=#0066CC;verticalAlign=top;verticalLabelPosition=bottom;labelPosition=center;align=center;html=1;outlineConnect=0;fillColor=#CCCCCC;strokeColor=#6881B3;gradientColor=none;gradientDirection=north;strokeWidth=2;shape=mxgraph.networks.pc;" vertex="1" parent="fC2aXZ93NajQi_3qFE1q-61">
          <mxGeometry width="57.14" height="40" as="geometry" />
        </mxCell>
        <mxCell id="fC2aXZ93NajQi_3qFE1q-63" value="" style="fontColor=#0066CC;verticalAlign=top;verticalLabelPosition=bottom;labelPosition=center;align=center;html=1;outlineConnect=0;fillColor=#CCCCCC;strokeColor=#6881B3;gradientColor=none;gradientDirection=north;strokeWidth=2;shape=mxgraph.networks.desktop_pc;" vertex="1" parent="fC2aXZ93NajQi_3qFE1q-61">
          <mxGeometry x="61" width="20" height="40" as="geometry" />
        </mxCell>
        <mxCell id="fC2aXZ93NajQi_3qFE1q-64" value="" style="group" vertex="1" connectable="0" parent="1">
          <mxGeometry x="550" y="280" width="81" height="40" as="geometry" />
        </mxCell>
        <mxCell id="fC2aXZ93NajQi_3qFE1q-65" value="" style="fontColor=#0066CC;verticalAlign=top;verticalLabelPosition=bottom;labelPosition=center;align=center;html=1;outlineConnect=0;fillColor=#CCCCCC;strokeColor=#6881B3;gradientColor=none;gradientDirection=north;strokeWidth=2;shape=mxgraph.networks.pc;" vertex="1" parent="fC2aXZ93NajQi_3qFE1q-64">
          <mxGeometry width="57.14" height="40" as="geometry" />
        </mxCell>
        <mxCell id="fC2aXZ93NajQi_3qFE1q-66" value="" style="fontColor=#0066CC;verticalAlign=top;verticalLabelPosition=bottom;labelPosition=center;align=center;html=1;outlineConnect=0;fillColor=#CCCCCC;strokeColor=#6881B3;gradientColor=none;gradientDirection=north;strokeWidth=2;shape=mxgraph.networks.desktop_pc;" vertex="1" parent="fC2aXZ93NajQi_3qFE1q-64">
          <mxGeometry x="61" width="20" height="40" as="geometry" />
        </mxCell>
        <mxCell id="fC2aXZ93NajQi_3qFE1q-67" value="" style="group" vertex="1" connectable="0" parent="1">
          <mxGeometry x="460" y="280" width="81" height="40" as="geometry" />
        </mxCell>
        <mxCell id="fC2aXZ93NajQi_3qFE1q-68" value="" style="fontColor=#0066CC;verticalAlign=top;verticalLabelPosition=bottom;labelPosition=center;align=center;html=1;outlineConnect=0;fillColor=#CCCCCC;strokeColor=#6881B3;gradientColor=none;gradientDirection=north;strokeWidth=2;shape=mxgraph.networks.pc;" vertex="1" parent="fC2aXZ93NajQi_3qFE1q-67">
          <mxGeometry width="57.14" height="40" as="geometry" />
        </mxCell>
        <mxCell id="fC2aXZ93NajQi_3qFE1q-69" value="" style="fontColor=#0066CC;verticalAlign=top;verticalLabelPosition=bottom;labelPosition=center;align=center;html=1;outlineConnect=0;fillColor=#CCCCCC;strokeColor=#6881B3;gradientColor=none;gradientDirection=north;strokeWidth=2;shape=mxgraph.networks.desktop_pc;" vertex="1" parent="fC2aXZ93NajQi_3qFE1q-67">
          <mxGeometry x="61" width="20" height="40" as="geometry" />
        </mxCell>
        <mxCell id="fC2aXZ93NajQi_3qFE1q-70" value="" style="group" vertex="1" connectable="0" parent="1">
          <mxGeometry x="367" y="440" width="460" height="70" as="geometry" />
        </mxCell>
        <mxCell id="fC2aXZ93NajQi_3qFE1q-72" value="" style="fontColor=#0066CC;verticalAlign=top;verticalLabelPosition=bottom;labelPosition=center;align=center;html=1;outlineConnect=0;fillColor=#CCCCCC;strokeColor=#6881B3;gradientColor=none;gradientDirection=north;strokeWidth=2;shape=mxgraph.networks.pc;" vertex="1" parent="fC2aXZ93NajQi_3qFE1q-70">
          <mxGeometry width="57.14" height="40" as="geometry" />
        </mxCell>
        <mxCell id="fC2aXZ93NajQi_3qFE1q-73" value="" style="fontColor=#0066CC;verticalAlign=top;verticalLabelPosition=bottom;labelPosition=center;align=center;html=1;outlineConnect=0;fillColor=#CCCCCC;strokeColor=#6881B3;gradientColor=none;gradientDirection=north;strokeWidth=2;shape=mxgraph.networks.desktop_pc;" vertex="1" parent="fC2aXZ93NajQi_3qFE1q-70">
          <mxGeometry x="61" width="20" height="40" as="geometry" />
        </mxCell>
        <mxCell id="fC2aXZ93NajQi_3qFE1q-74" value="" style="group" vertex="1" connectable="0" parent="1">
          <mxGeometry x="727" y="440" width="81" height="40" as="geometry" />
        </mxCell>
        <mxCell id="fC2aXZ93NajQi_3qFE1q-75" value="" style="fontColor=#0066CC;verticalAlign=top;verticalLabelPosition=bottom;labelPosition=center;align=center;html=1;outlineConnect=0;fillColor=#CCCCCC;strokeColor=#6881B3;gradientColor=none;gradientDirection=north;strokeWidth=2;shape=mxgraph.networks.pc;" vertex="1" parent="fC2aXZ93NajQi_3qFE1q-74">
          <mxGeometry width="57.14" height="40" as="geometry" />
        </mxCell>
        <mxCell id="fC2aXZ93NajQi_3qFE1q-76" value="" style="fontColor=#0066CC;verticalAlign=top;verticalLabelPosition=bottom;labelPosition=center;align=center;html=1;outlineConnect=0;fillColor=#CCCCCC;strokeColor=#6881B3;gradientColor=none;gradientDirection=north;strokeWidth=2;shape=mxgraph.networks.desktop_pc;" vertex="1" parent="fC2aXZ93NajQi_3qFE1q-74">
          <mxGeometry x="61" width="20" height="40" as="geometry" />
        </mxCell>
        <mxCell id="fC2aXZ93NajQi_3qFE1q-77" value="" style="group" vertex="1" connectable="0" parent="1">
          <mxGeometry x="637" y="440" width="81" height="40" as="geometry" />
        </mxCell>
        <mxCell id="fC2aXZ93NajQi_3qFE1q-78" value="" style="fontColor=#0066CC;verticalAlign=top;verticalLabelPosition=bottom;labelPosition=center;align=center;html=1;outlineConnect=0;fillColor=#CCCCCC;strokeColor=#6881B3;gradientColor=none;gradientDirection=north;strokeWidth=2;shape=mxgraph.networks.pc;" vertex="1" parent="fC2aXZ93NajQi_3qFE1q-77">
          <mxGeometry width="57.14" height="40" as="geometry" />
        </mxCell>
        <mxCell id="fC2aXZ93NajQi_3qFE1q-79" value="" style="fontColor=#0066CC;verticalAlign=top;verticalLabelPosition=bottom;labelPosition=center;align=center;html=1;outlineConnect=0;fillColor=#CCCCCC;strokeColor=#6881B3;gradientColor=none;gradientDirection=north;strokeWidth=2;shape=mxgraph.networks.desktop_pc;" vertex="1" parent="fC2aXZ93NajQi_3qFE1q-77">
          <mxGeometry x="61" width="20" height="40" as="geometry" />
        </mxCell>
        <mxCell id="fC2aXZ93NajQi_3qFE1q-80" value="" style="group" vertex="1" connectable="0" parent="1">
          <mxGeometry x="547" y="440" width="81" height="40" as="geometry" />
        </mxCell>
        <mxCell id="fC2aXZ93NajQi_3qFE1q-81" value="" style="fontColor=#0066CC;verticalAlign=top;verticalLabelPosition=bottom;labelPosition=center;align=center;html=1;outlineConnect=0;fillColor=#CCCCCC;strokeColor=#6881B3;gradientColor=none;gradientDirection=north;strokeWidth=2;shape=mxgraph.networks.pc;" vertex="1" parent="fC2aXZ93NajQi_3qFE1q-80">
          <mxGeometry width="57.14" height="40" as="geometry" />
        </mxCell>
        <mxCell id="fC2aXZ93NajQi_3qFE1q-82" value="" style="fontColor=#0066CC;verticalAlign=top;verticalLabelPosition=bottom;labelPosition=center;align=center;html=1;outlineConnect=0;fillColor=#CCCCCC;strokeColor=#6881B3;gradientColor=none;gradientDirection=north;strokeWidth=2;shape=mxgraph.networks.desktop_pc;" vertex="1" parent="fC2aXZ93NajQi_3qFE1q-80">
          <mxGeometry x="61" width="20" height="40" as="geometry" />
        </mxCell>
        <mxCell id="fC2aXZ93NajQi_3qFE1q-83" value="" style="group" vertex="1" connectable="0" parent="1">
          <mxGeometry x="457" y="440" width="81" height="40" as="geometry" />
        </mxCell>
        <mxCell id="fC2aXZ93NajQi_3qFE1q-84" value="" style="fontColor=#0066CC;verticalAlign=top;verticalLabelPosition=bottom;labelPosition=center;align=center;html=1;outlineConnect=0;fillColor=#CCCCCC;strokeColor=#6881B3;gradientColor=none;gradientDirection=north;strokeWidth=2;shape=mxgraph.networks.pc;" vertex="1" parent="fC2aXZ93NajQi_3qFE1q-83">
          <mxGeometry width="57.14" height="40" as="geometry" />
        </mxCell>
        <mxCell id="fC2aXZ93NajQi_3qFE1q-85" value="" style="fontColor=#0066CC;verticalAlign=top;verticalLabelPosition=bottom;labelPosition=center;align=center;html=1;outlineConnect=0;fillColor=#CCCCCC;strokeColor=#6881B3;gradientColor=none;gradientDirection=north;strokeWidth=2;shape=mxgraph.networks.desktop_pc;" vertex="1" parent="fC2aXZ93NajQi_3qFE1q-83">
          <mxGeometry x="61" width="20" height="40" as="geometry" />
        </mxCell>
        <mxCell id="fC2aXZ93NajQi_3qFE1q-86" value="" style="group" vertex="1" connectable="0" parent="1">
          <mxGeometry x="367" y="620" width="460" height="70" as="geometry" />
        </mxCell>
        <mxCell id="fC2aXZ93NajQi_3qFE1q-88" value="" style="fontColor=#0066CC;verticalAlign=top;verticalLabelPosition=bottom;labelPosition=center;align=center;html=1;outlineConnect=0;fillColor=#CCCCCC;strokeColor=#6881B3;gradientColor=none;gradientDirection=north;strokeWidth=2;shape=mxgraph.networks.pc;" vertex="1" parent="fC2aXZ93NajQi_3qFE1q-86">
          <mxGeometry width="57.14" height="40" as="geometry" />
        </mxCell>
        <mxCell id="fC2aXZ93NajQi_3qFE1q-89" value="" style="fontColor=#0066CC;verticalAlign=top;verticalLabelPosition=bottom;labelPosition=center;align=center;html=1;outlineConnect=0;fillColor=#CCCCCC;strokeColor=#6881B3;gradientColor=none;gradientDirection=north;strokeWidth=2;shape=mxgraph.networks.desktop_pc;" vertex="1" parent="fC2aXZ93NajQi_3qFE1q-86">
          <mxGeometry x="61" width="20" height="40" as="geometry" />
        </mxCell>
        <mxCell id="fC2aXZ93NajQi_3qFE1q-90" value="" style="group" vertex="1" connectable="0" parent="1">
          <mxGeometry x="727" y="620" width="81" height="40" as="geometry" />
        </mxCell>
        <mxCell id="fC2aXZ93NajQi_3qFE1q-91" value="" style="fontColor=#0066CC;verticalAlign=top;verticalLabelPosition=bottom;labelPosition=center;align=center;html=1;outlineConnect=0;fillColor=#CCCCCC;strokeColor=#6881B3;gradientColor=none;gradientDirection=north;strokeWidth=2;shape=mxgraph.networks.pc;" vertex="1" parent="fC2aXZ93NajQi_3qFE1q-90">
          <mxGeometry width="57.14" height="40" as="geometry" />
        </mxCell>
        <mxCell id="fC2aXZ93NajQi_3qFE1q-92" value="" style="fontColor=#0066CC;verticalAlign=top;verticalLabelPosition=bottom;labelPosition=center;align=center;html=1;outlineConnect=0;fillColor=#CCCCCC;strokeColor=#6881B3;gradientColor=none;gradientDirection=north;strokeWidth=2;shape=mxgraph.networks.desktop_pc;" vertex="1" parent="fC2aXZ93NajQi_3qFE1q-90">
          <mxGeometry x="61" width="20" height="40" as="geometry" />
        </mxCell>
        <mxCell id="fC2aXZ93NajQi_3qFE1q-93" value="" style="group" vertex="1" connectable="0" parent="1">
          <mxGeometry x="637" y="620" width="81" height="40" as="geometry" />
        </mxCell>
        <mxCell id="fC2aXZ93NajQi_3qFE1q-94" value="" style="fontColor=#0066CC;verticalAlign=top;verticalLabelPosition=bottom;labelPosition=center;align=center;html=1;outlineConnect=0;fillColor=#CCCCCC;strokeColor=#6881B3;gradientColor=none;gradientDirection=north;strokeWidth=2;shape=mxgraph.networks.pc;" vertex="1" parent="fC2aXZ93NajQi_3qFE1q-93">
          <mxGeometry width="57.14" height="40" as="geometry" />
        </mxCell>
        <mxCell id="fC2aXZ93NajQi_3qFE1q-95" value="" style="fontColor=#0066CC;verticalAlign=top;verticalLabelPosition=bottom;labelPosition=center;align=center;html=1;outlineConnect=0;fillColor=#CCCCCC;strokeColor=#6881B3;gradientColor=none;gradientDirection=north;strokeWidth=2;shape=mxgraph.networks.desktop_pc;" vertex="1" parent="fC2aXZ93NajQi_3qFE1q-93">
          <mxGeometry x="61" width="20" height="40" as="geometry" />
        </mxCell>
        <mxCell id="fC2aXZ93NajQi_3qFE1q-96" value="" style="group" vertex="1" connectable="0" parent="1">
          <mxGeometry x="547" y="620" width="81" height="40" as="geometry" />
        </mxCell>
        <mxCell id="fC2aXZ93NajQi_3qFE1q-97" value="" style="fontColor=#0066CC;verticalAlign=top;verticalLabelPosition=bottom;labelPosition=center;align=center;html=1;outlineConnect=0;fillColor=#CCCCCC;strokeColor=#6881B3;gradientColor=none;gradientDirection=north;strokeWidth=2;shape=mxgraph.networks.pc;" vertex="1" parent="fC2aXZ93NajQi_3qFE1q-96">
          <mxGeometry width="57.14" height="40" as="geometry" />
        </mxCell>
        <mxCell id="fC2aXZ93NajQi_3qFE1q-98" value="" style="fontColor=#0066CC;verticalAlign=top;verticalLabelPosition=bottom;labelPosition=center;align=center;html=1;outlineConnect=0;fillColor=#CCCCCC;strokeColor=#6881B3;gradientColor=none;gradientDirection=north;strokeWidth=2;shape=mxgraph.networks.desktop_pc;" vertex="1" parent="fC2aXZ93NajQi_3qFE1q-96">
          <mxGeometry x="61" width="20" height="40" as="geometry" />
        </mxCell>
        <mxCell id="fC2aXZ93NajQi_3qFE1q-99" value="" style="group" vertex="1" connectable="0" parent="1">
          <mxGeometry x="457" y="620" width="81" height="40" as="geometry" />
        </mxCell>
        <mxCell id="fC2aXZ93NajQi_3qFE1q-100" value="" style="fontColor=#0066CC;verticalAlign=top;verticalLabelPosition=bottom;labelPosition=center;align=center;html=1;outlineConnect=0;fillColor=#CCCCCC;strokeColor=#6881B3;gradientColor=none;gradientDirection=north;strokeWidth=2;shape=mxgraph.networks.pc;" vertex="1" parent="fC2aXZ93NajQi_3qFE1q-99">
          <mxGeometry width="57.14" height="40" as="geometry" />
        </mxCell>
        <mxCell id="fC2aXZ93NajQi_3qFE1q-101" value="" style="fontColor=#0066CC;verticalAlign=top;verticalLabelPosition=bottom;labelPosition=center;align=center;html=1;outlineConnect=0;fillColor=#CCCCCC;strokeColor=#6881B3;gradientColor=none;gradientDirection=north;strokeWidth=2;shape=mxgraph.networks.desktop_pc;" vertex="1" parent="fC2aXZ93NajQi_3qFE1q-99">
          <mxGeometry x="61" width="20" height="40" as="geometry" />
        </mxCell>
        <mxCell id="fC2aXZ93NajQi_3qFE1q-138" value="" style="group" vertex="1" connectable="0" parent="1">
          <mxGeometry x="130" y="110" width="81" height="40" as="geometry" />
        </mxCell>
        <mxCell id="fC2aXZ93NajQi_3qFE1q-139" value="" style="fontColor=#0066CC;verticalAlign=top;verticalLabelPosition=bottom;labelPosition=center;align=center;html=1;outlineConnect=0;fillColor=#CCCCCC;strokeColor=#6881B3;gradientColor=none;gradientDirection=north;strokeWidth=2;shape=mxgraph.networks.pc;" vertex="1" parent="fC2aXZ93NajQi_3qFE1q-138">
          <mxGeometry width="57.14" height="40" as="geometry" />
        </mxCell>
        <mxCell id="fC2aXZ93NajQi_3qFE1q-140" value="" style="fontColor=#0066CC;verticalAlign=top;verticalLabelPosition=bottom;labelPosition=center;align=center;html=1;outlineConnect=0;fillColor=#CCCCCC;strokeColor=#6881B3;gradientColor=none;gradientDirection=north;strokeWidth=2;shape=mxgraph.networks.desktop_pc;" vertex="1" parent="fC2aXZ93NajQi_3qFE1q-138">
          <mxGeometry x="61" width="20" height="40" as="geometry" />
        </mxCell>
        <mxCell id="fC2aXZ93NajQi_3qFE1q-141" value="" style="group" vertex="1" connectable="0" parent="1">
          <mxGeometry x="40" y="110" width="81" height="40" as="geometry" />
        </mxCell>
        <mxCell id="fC2aXZ93NajQi_3qFE1q-142" value="" style="fontColor=#0066CC;verticalAlign=top;verticalLabelPosition=bottom;labelPosition=center;align=center;html=1;outlineConnect=0;fillColor=#CCCCCC;strokeColor=#6881B3;gradientColor=none;gradientDirection=north;strokeWidth=2;shape=mxgraph.networks.pc;" vertex="1" parent="fC2aXZ93NajQi_3qFE1q-141">
          <mxGeometry width="57.14" height="40" as="geometry" />
        </mxCell>
        <mxCell id="fC2aXZ93NajQi_3qFE1q-143" value="" style="fontColor=#0066CC;verticalAlign=top;verticalLabelPosition=bottom;labelPosition=center;align=center;html=1;outlineConnect=0;fillColor=#CCCCCC;strokeColor=#6881B3;gradientColor=none;gradientDirection=north;strokeWidth=2;shape=mxgraph.networks.desktop_pc;" vertex="1" parent="fC2aXZ93NajQi_3qFE1q-141">
          <mxGeometry x="61" width="20" height="40" as="geometry" />
        </mxCell>
        <mxCell id="fC2aXZ93NajQi_3qFE1q-144" value="" style="group" vertex="1" connectable="0" parent="1">
          <mxGeometry x="-50" y="110" width="81" height="40" as="geometry" />
        </mxCell>
        <mxCell id="fC2aXZ93NajQi_3qFE1q-145" value="" style="fontColor=#0066CC;verticalAlign=top;verticalLabelPosition=bottom;labelPosition=center;align=center;html=1;outlineConnect=0;fillColor=#CCCCCC;strokeColor=#6881B3;gradientColor=none;gradientDirection=north;strokeWidth=2;shape=mxgraph.networks.pc;" vertex="1" parent="fC2aXZ93NajQi_3qFE1q-144">
          <mxGeometry width="57.14" height="40" as="geometry" />
        </mxCell>
        <mxCell id="fC2aXZ93NajQi_3qFE1q-146" value="" style="fontColor=#0066CC;verticalAlign=top;verticalLabelPosition=bottom;labelPosition=center;align=center;html=1;outlineConnect=0;fillColor=#CCCCCC;strokeColor=#6881B3;gradientColor=none;gradientDirection=north;strokeWidth=2;shape=mxgraph.networks.desktop_pc;" vertex="1" parent="fC2aXZ93NajQi_3qFE1q-144">
          <mxGeometry x="61" width="20" height="40" as="geometry" />
        </mxCell>
        <mxCell id="fC2aXZ93NajQi_3qFE1q-147" value="" style="group" vertex="1" connectable="0" parent="1">
          <mxGeometry x="-140" y="110" width="81" height="40" as="geometry" />
        </mxCell>
        <mxCell id="fC2aXZ93NajQi_3qFE1q-148" value="" style="fontColor=#0066CC;verticalAlign=top;verticalLabelPosition=bottom;labelPosition=center;align=center;html=1;outlineConnect=0;fillColor=#CCCCCC;strokeColor=#6881B3;gradientColor=none;gradientDirection=north;strokeWidth=2;shape=mxgraph.networks.pc;" vertex="1" parent="fC2aXZ93NajQi_3qFE1q-147">
          <mxGeometry width="57.14" height="40" as="geometry" />
        </mxCell>
        <mxCell id="fC2aXZ93NajQi_3qFE1q-149" value="" style="fontColor=#0066CC;verticalAlign=top;verticalLabelPosition=bottom;labelPosition=center;align=center;html=1;outlineConnect=0;fillColor=#CCCCCC;strokeColor=#6881B3;gradientColor=none;gradientDirection=north;strokeWidth=2;shape=mxgraph.networks.desktop_pc;" vertex="1" parent="fC2aXZ93NajQi_3qFE1q-147">
          <mxGeometry x="61" width="20" height="40" as="geometry" />
        </mxCell>
        <mxCell id="fC2aXZ93NajQi_3qFE1q-151" value="" style="group" vertex="1" connectable="0" parent="1">
          <mxGeometry x="130" y="275" width="81" height="40" as="geometry" />
        </mxCell>
        <mxCell id="fC2aXZ93NajQi_3qFE1q-152" value="" style="fontColor=#0066CC;verticalAlign=top;verticalLabelPosition=bottom;labelPosition=center;align=center;html=1;outlineConnect=0;fillColor=#CCCCCC;strokeColor=#6881B3;gradientColor=none;gradientDirection=north;strokeWidth=2;shape=mxgraph.networks.pc;" vertex="1" parent="fC2aXZ93NajQi_3qFE1q-151">
          <mxGeometry width="57.14" height="40" as="geometry" />
        </mxCell>
        <mxCell id="fC2aXZ93NajQi_3qFE1q-153" value="" style="fontColor=#0066CC;verticalAlign=top;verticalLabelPosition=bottom;labelPosition=center;align=center;html=1;outlineConnect=0;fillColor=#CCCCCC;strokeColor=#6881B3;gradientColor=none;gradientDirection=north;strokeWidth=2;shape=mxgraph.networks.desktop_pc;" vertex="1" parent="fC2aXZ93NajQi_3qFE1q-151">
          <mxGeometry x="61" width="20" height="40" as="geometry" />
        </mxCell>
        <mxCell id="fC2aXZ93NajQi_3qFE1q-154" value="" style="group" vertex="1" connectable="0" parent="1">
          <mxGeometry x="40" y="275" width="81" height="40" as="geometry" />
        </mxCell>
        <mxCell id="fC2aXZ93NajQi_3qFE1q-155" value="" style="fontColor=#0066CC;verticalAlign=top;verticalLabelPosition=bottom;labelPosition=center;align=center;html=1;outlineConnect=0;fillColor=#CCCCCC;strokeColor=#6881B3;gradientColor=none;gradientDirection=north;strokeWidth=2;shape=mxgraph.networks.pc;" vertex="1" parent="fC2aXZ93NajQi_3qFE1q-154">
          <mxGeometry width="57.14" height="40" as="geometry" />
        </mxCell>
        <mxCell id="fC2aXZ93NajQi_3qFE1q-156" value="" style="fontColor=#0066CC;verticalAlign=top;verticalLabelPosition=bottom;labelPosition=center;align=center;html=1;outlineConnect=0;fillColor=#CCCCCC;strokeColor=#6881B3;gradientColor=none;gradientDirection=north;strokeWidth=2;shape=mxgraph.networks.desktop_pc;" vertex="1" parent="fC2aXZ93NajQi_3qFE1q-154">
          <mxGeometry x="61" width="20" height="40" as="geometry" />
        </mxCell>
        <mxCell id="fC2aXZ93NajQi_3qFE1q-157" value="" style="group" vertex="1" connectable="0" parent="1">
          <mxGeometry x="-50" y="275" width="81" height="40" as="geometry" />
        </mxCell>
        <mxCell id="fC2aXZ93NajQi_3qFE1q-158" value="" style="fontColor=#0066CC;verticalAlign=top;verticalLabelPosition=bottom;labelPosition=center;align=center;html=1;outlineConnect=0;fillColor=#CCCCCC;strokeColor=#6881B3;gradientColor=none;gradientDirection=north;strokeWidth=2;shape=mxgraph.networks.pc;" vertex="1" parent="fC2aXZ93NajQi_3qFE1q-157">
          <mxGeometry width="57.14" height="40" as="geometry" />
        </mxCell>
        <mxCell id="fC2aXZ93NajQi_3qFE1q-159" value="" style="fontColor=#0066CC;verticalAlign=top;verticalLabelPosition=bottom;labelPosition=center;align=center;html=1;outlineConnect=0;fillColor=#CCCCCC;strokeColor=#6881B3;gradientColor=none;gradientDirection=north;strokeWidth=2;shape=mxgraph.networks.desktop_pc;" vertex="1" parent="fC2aXZ93NajQi_3qFE1q-157">
          <mxGeometry x="61" width="20" height="40" as="geometry" />
        </mxCell>
        <mxCell id="fC2aXZ93NajQi_3qFE1q-160" value="" style="group" vertex="1" connectable="0" parent="1">
          <mxGeometry x="-140" y="275" width="81" height="40" as="geometry" />
        </mxCell>
        <mxCell id="fC2aXZ93NajQi_3qFE1q-161" value="" style="fontColor=#0066CC;verticalAlign=top;verticalLabelPosition=bottom;labelPosition=center;align=center;html=1;outlineConnect=0;fillColor=#CCCCCC;strokeColor=#6881B3;gradientColor=none;gradientDirection=north;strokeWidth=2;shape=mxgraph.networks.pc;" vertex="1" parent="fC2aXZ93NajQi_3qFE1q-160">
          <mxGeometry width="57.14" height="40" as="geometry" />
        </mxCell>
        <mxCell id="fC2aXZ93NajQi_3qFE1q-162" value="" style="fontColor=#0066CC;verticalAlign=top;verticalLabelPosition=bottom;labelPosition=center;align=center;html=1;outlineConnect=0;fillColor=#CCCCCC;strokeColor=#6881B3;gradientColor=none;gradientDirection=north;strokeWidth=2;shape=mxgraph.networks.desktop_pc;" vertex="1" parent="fC2aXZ93NajQi_3qFE1q-160">
          <mxGeometry x="61" width="20" height="40" as="geometry" />
        </mxCell>
        <mxCell id="fC2aXZ93NajQi_3qFE1q-164" value="" style="group" vertex="1" connectable="0" parent="1">
          <mxGeometry x="130" y="435" width="81" height="40" as="geometry" />
        </mxCell>
        <mxCell id="fC2aXZ93NajQi_3qFE1q-165" value="" style="fontColor=#0066CC;verticalAlign=top;verticalLabelPosition=bottom;labelPosition=center;align=center;html=1;outlineConnect=0;fillColor=#CCCCCC;strokeColor=#6881B3;gradientColor=none;gradientDirection=north;strokeWidth=2;shape=mxgraph.networks.pc;" vertex="1" parent="fC2aXZ93NajQi_3qFE1q-164">
          <mxGeometry width="57.14" height="40" as="geometry" />
        </mxCell>
        <mxCell id="fC2aXZ93NajQi_3qFE1q-166" value="" style="fontColor=#0066CC;verticalAlign=top;verticalLabelPosition=bottom;labelPosition=center;align=center;html=1;outlineConnect=0;fillColor=#CCCCCC;strokeColor=#6881B3;gradientColor=none;gradientDirection=north;strokeWidth=2;shape=mxgraph.networks.desktop_pc;" vertex="1" parent="fC2aXZ93NajQi_3qFE1q-164">
          <mxGeometry x="61" width="20" height="40" as="geometry" />
        </mxCell>
        <mxCell id="fC2aXZ93NajQi_3qFE1q-167" value="" style="group" vertex="1" connectable="0" parent="1">
          <mxGeometry x="40" y="435" width="81" height="40" as="geometry" />
        </mxCell>
        <mxCell id="fC2aXZ93NajQi_3qFE1q-168" value="" style="fontColor=#0066CC;verticalAlign=top;verticalLabelPosition=bottom;labelPosition=center;align=center;html=1;outlineConnect=0;fillColor=#CCCCCC;strokeColor=#6881B3;gradientColor=none;gradientDirection=north;strokeWidth=2;shape=mxgraph.networks.pc;" vertex="1" parent="fC2aXZ93NajQi_3qFE1q-167">
          <mxGeometry width="57.14" height="40" as="geometry" />
        </mxCell>
        <mxCell id="fC2aXZ93NajQi_3qFE1q-169" value="" style="fontColor=#0066CC;verticalAlign=top;verticalLabelPosition=bottom;labelPosition=center;align=center;html=1;outlineConnect=0;fillColor=#CCCCCC;strokeColor=#6881B3;gradientColor=none;gradientDirection=north;strokeWidth=2;shape=mxgraph.networks.desktop_pc;" vertex="1" parent="fC2aXZ93NajQi_3qFE1q-167">
          <mxGeometry x="61" width="20" height="40" as="geometry" />
        </mxCell>
        <mxCell id="fC2aXZ93NajQi_3qFE1q-170" value="" style="group" vertex="1" connectable="0" parent="1">
          <mxGeometry x="-50" y="435" width="81" height="40" as="geometry" />
        </mxCell>
        <mxCell id="fC2aXZ93NajQi_3qFE1q-171" value="" style="fontColor=#0066CC;verticalAlign=top;verticalLabelPosition=bottom;labelPosition=center;align=center;html=1;outlineConnect=0;fillColor=#CCCCCC;strokeColor=#6881B3;gradientColor=none;gradientDirection=north;strokeWidth=2;shape=mxgraph.networks.pc;" vertex="1" parent="fC2aXZ93NajQi_3qFE1q-170">
          <mxGeometry width="57.14" height="40" as="geometry" />
        </mxCell>
        <mxCell id="fC2aXZ93NajQi_3qFE1q-172" value="" style="fontColor=#0066CC;verticalAlign=top;verticalLabelPosition=bottom;labelPosition=center;align=center;html=1;outlineConnect=0;fillColor=#CCCCCC;strokeColor=#6881B3;gradientColor=none;gradientDirection=north;strokeWidth=2;shape=mxgraph.networks.desktop_pc;" vertex="1" parent="fC2aXZ93NajQi_3qFE1q-170">
          <mxGeometry x="61" width="20" height="40" as="geometry" />
        </mxCell>
        <mxCell id="fC2aXZ93NajQi_3qFE1q-173" value="" style="group" vertex="1" connectable="0" parent="1">
          <mxGeometry x="-140" y="435" width="81" height="40" as="geometry" />
        </mxCell>
        <mxCell id="fC2aXZ93NajQi_3qFE1q-174" value="" style="fontColor=#0066CC;verticalAlign=top;verticalLabelPosition=bottom;labelPosition=center;align=center;html=1;outlineConnect=0;fillColor=#CCCCCC;strokeColor=#6881B3;gradientColor=none;gradientDirection=north;strokeWidth=2;shape=mxgraph.networks.pc;" vertex="1" parent="fC2aXZ93NajQi_3qFE1q-173">
          <mxGeometry width="57.14" height="40" as="geometry" />
        </mxCell>
        <mxCell id="fC2aXZ93NajQi_3qFE1q-175" value="" style="fontColor=#0066CC;verticalAlign=top;verticalLabelPosition=bottom;labelPosition=center;align=center;html=1;outlineConnect=0;fillColor=#CCCCCC;strokeColor=#6881B3;gradientColor=none;gradientDirection=north;strokeWidth=2;shape=mxgraph.networks.desktop_pc;" vertex="1" parent="fC2aXZ93NajQi_3qFE1q-173">
          <mxGeometry x="61" width="20" height="40" as="geometry" />
        </mxCell>
        <mxCell id="fC2aXZ93NajQi_3qFE1q-177" value="" style="group" vertex="1" connectable="0" parent="1">
          <mxGeometry x="130" y="615" width="81" height="40" as="geometry" />
        </mxCell>
        <mxCell id="fC2aXZ93NajQi_3qFE1q-178" value="" style="fontColor=#0066CC;verticalAlign=top;verticalLabelPosition=bottom;labelPosition=center;align=center;html=1;outlineConnect=0;fillColor=#CCCCCC;strokeColor=#6881B3;gradientColor=none;gradientDirection=north;strokeWidth=2;shape=mxgraph.networks.pc;" vertex="1" parent="fC2aXZ93NajQi_3qFE1q-177">
          <mxGeometry width="57.14" height="40" as="geometry" />
        </mxCell>
        <mxCell id="fC2aXZ93NajQi_3qFE1q-179" value="" style="fontColor=#0066CC;verticalAlign=top;verticalLabelPosition=bottom;labelPosition=center;align=center;html=1;outlineConnect=0;fillColor=#CCCCCC;strokeColor=#6881B3;gradientColor=none;gradientDirection=north;strokeWidth=2;shape=mxgraph.networks.desktop_pc;" vertex="1" parent="fC2aXZ93NajQi_3qFE1q-177">
          <mxGeometry x="61" width="20" height="40" as="geometry" />
        </mxCell>
        <mxCell id="fC2aXZ93NajQi_3qFE1q-180" value="" style="group" vertex="1" connectable="0" parent="1">
          <mxGeometry x="40" y="615" width="81" height="40" as="geometry" />
        </mxCell>
        <mxCell id="fC2aXZ93NajQi_3qFE1q-181" value="" style="fontColor=#0066CC;verticalAlign=top;verticalLabelPosition=bottom;labelPosition=center;align=center;html=1;outlineConnect=0;fillColor=#CCCCCC;strokeColor=#6881B3;gradientColor=none;gradientDirection=north;strokeWidth=2;shape=mxgraph.networks.pc;" vertex="1" parent="fC2aXZ93NajQi_3qFE1q-180">
          <mxGeometry width="57.14" height="40" as="geometry" />
        </mxCell>
        <mxCell id="fC2aXZ93NajQi_3qFE1q-182" value="" style="fontColor=#0066CC;verticalAlign=top;verticalLabelPosition=bottom;labelPosition=center;align=center;html=1;outlineConnect=0;fillColor=#CCCCCC;strokeColor=#6881B3;gradientColor=none;gradientDirection=north;strokeWidth=2;shape=mxgraph.networks.desktop_pc;" vertex="1" parent="fC2aXZ93NajQi_3qFE1q-180">
          <mxGeometry x="61" width="20" height="40" as="geometry" />
        </mxCell>
        <mxCell id="fC2aXZ93NajQi_3qFE1q-183" value="" style="group" vertex="1" connectable="0" parent="1">
          <mxGeometry x="-50" y="615" width="81" height="40" as="geometry" />
        </mxCell>
        <mxCell id="fC2aXZ93NajQi_3qFE1q-184" value="" style="fontColor=#0066CC;verticalAlign=top;verticalLabelPosition=bottom;labelPosition=center;align=center;html=1;outlineConnect=0;fillColor=#CCCCCC;strokeColor=#6881B3;gradientColor=none;gradientDirection=north;strokeWidth=2;shape=mxgraph.networks.pc;" vertex="1" parent="fC2aXZ93NajQi_3qFE1q-183">
          <mxGeometry width="57.14" height="40" as="geometry" />
        </mxCell>
        <mxCell id="fC2aXZ93NajQi_3qFE1q-185" value="" style="fontColor=#0066CC;verticalAlign=top;verticalLabelPosition=bottom;labelPosition=center;align=center;html=1;outlineConnect=0;fillColor=#CCCCCC;strokeColor=#6881B3;gradientColor=none;gradientDirection=north;strokeWidth=2;shape=mxgraph.networks.desktop_pc;" vertex="1" parent="fC2aXZ93NajQi_3qFE1q-183">
          <mxGeometry x="61" width="20" height="40" as="geometry" />
        </mxCell>
        <mxCell id="fC2aXZ93NajQi_3qFE1q-186" value="" style="group" vertex="1" connectable="0" parent="1">
          <mxGeometry x="-140" y="615" width="81" height="40" as="geometry" />
        </mxCell>
        <mxCell id="fC2aXZ93NajQi_3qFE1q-187" value="" style="fontColor=#0066CC;verticalAlign=top;verticalLabelPosition=bottom;labelPosition=center;align=center;html=1;outlineConnect=0;fillColor=#CCCCCC;strokeColor=#6881B3;gradientColor=none;gradientDirection=north;strokeWidth=2;shape=mxgraph.networks.pc;" vertex="1" parent="fC2aXZ93NajQi_3qFE1q-186">
          <mxGeometry width="57.14" height="40" as="geometry" />
        </mxCell>
        <mxCell id="fC2aXZ93NajQi_3qFE1q-188" value="" style="fontColor=#0066CC;verticalAlign=top;verticalLabelPosition=bottom;labelPosition=center;align=center;html=1;outlineConnect=0;fillColor=#CCCCCC;strokeColor=#6881B3;gradientColor=none;gradientDirection=north;strokeWidth=2;shape=mxgraph.networks.desktop_pc;" vertex="1" parent="fC2aXZ93NajQi_3qFE1q-186">
          <mxGeometry x="61" width="20" height="40" as="geometry" />
        </mxCell>
        <mxCell id="fC2aXZ93NajQi_3qFE1q-202" value="" style="fontColor=#0066CC;verticalAlign=top;verticalLabelPosition=bottom;labelPosition=center;align=center;html=1;outlineConnect=0;fillColor=#CCCCCC;strokeColor=#6881B3;gradientColor=none;gradientDirection=north;strokeWidth=2;shape=mxgraph.networks.monitor;" vertex="1" parent="1">
          <mxGeometry x="274" y="-80" width="140" height="95" as="geometry" />
        </mxCell>
        <mxCell id="fC2aXZ93NajQi_3qFE1q-205" value="" style="group" vertex="1" connectable="0" parent="1">
          <mxGeometry x="-150" width="460" height="70" as="geometry" />
        </mxCell>
        <mxCell id="fC2aXZ93NajQi_3qFE1q-207" value="" style="fontColor=#0066CC;verticalAlign=top;verticalLabelPosition=bottom;labelPosition=center;align=center;html=1;outlineConnect=0;fillColor=#CCCCCC;strokeColor=#6881B3;gradientColor=none;gradientDirection=north;strokeWidth=2;shape=mxgraph.networks.pc;" vertex="1" parent="fC2aXZ93NajQi_3qFE1q-205">
          <mxGeometry x="10" width="71.43" height="50" as="geometry" />
        </mxCell>
        <mxCell id="fC2aXZ93NajQi_3qFE1q-208" value="" style="fontColor=#0066CC;verticalAlign=top;verticalLabelPosition=bottom;labelPosition=center;align=center;html=1;outlineConnect=0;fillColor=#CCCCCC;strokeColor=#6881B3;gradientColor=none;gradientDirection=north;strokeWidth=2;shape=mxgraph.networks.monitor;" vertex="1" parent="fC2aXZ93NajQi_3qFE1q-205">
          <mxGeometry x="88" width="61.54" height="50" as="geometry" />
        </mxCell>
        <mxCell id="fC2aXZ93NajQi_3qFE1q-247" style="edgeStyle=orthogonalEdgeStyle;rounded=0;orthogonalLoop=1;jettySize=auto;html=1;exitX=0.5;exitY=0;exitDx=0;exitDy=0;exitPerimeter=0;" edge="1" parent="1" source="fC2aXZ93NajQi_3qFE1q-210">
          <mxGeometry relative="1" as="geometry">
            <mxPoint x="309.99999999999955" y="820" as="targetPoint" />
          </mxGeometry>
        </mxCell>
        <mxCell id="fC2aXZ93NajQi_3qFE1q-210" value="" style="fontColor=#0066CC;verticalAlign=top;verticalLabelPosition=bottom;labelPosition=center;align=center;html=1;outlineConnect=0;fillColor=#CCCCCC;strokeColor=#6881B3;gradientColor=none;gradientDirection=north;strokeWidth=2;shape=mxgraph.networks.switch;" vertex="1" parent="1">
          <mxGeometry x="240" y="800" width="116" height="34.8" as="geometry" />
        </mxCell>
        <mxCell id="fC2aXZ93NajQi_3qFE1q-213" value="" style="edgeStyle=orthogonalEdgeStyle;rounded=0;orthogonalLoop=1;jettySize=auto;html=1;" edge="1" parent="1" source="fC2aXZ93NajQi_3qFE1q-166">
          <mxGeometry relative="1" as="geometry">
            <mxPoint x="201" y="555" as="targetPoint" />
          </mxGeometry>
        </mxCell>
        <mxCell id="fC2aXZ93NajQi_3qFE1q-214" value="" style="fontColor=#0066CC;verticalAlign=top;verticalLabelPosition=bottom;labelPosition=center;align=center;html=1;outlineConnect=0;fillColor=#CCCCCC;strokeColor=#6881B3;gradientColor=none;gradientDirection=north;strokeWidth=2;shape=mxgraph.networks.user_male;" vertex="1" parent="1">
          <mxGeometry x="-87" y="-90" width="28" height="70" as="geometry" />
        </mxCell>
        <mxCell id="fC2aXZ93NajQi_3qFE1q-220" value="" style="group" vertex="1" connectable="0" parent="1">
          <mxGeometry x="400" y="170" width="388" height="70" as="geometry" />
        </mxCell>
        <mxCell id="fC2aXZ93NajQi_3qFE1q-215" value="" style="fontColor=#0066CC;verticalAlign=top;verticalLabelPosition=bottom;labelPosition=center;align=center;html=1;outlineConnect=0;fillColor=#CCCCCC;strokeColor=#6881B3;gradientColor=none;gradientDirection=north;strokeWidth=2;shape=mxgraph.networks.user_male;" vertex="1" parent="fC2aXZ93NajQi_3qFE1q-220">
          <mxGeometry x="360" width="28" height="70" as="geometry" />
        </mxCell>
        <mxCell id="fC2aXZ93NajQi_3qFE1q-216" value="" style="fontColor=#0066CC;verticalAlign=top;verticalLabelPosition=bottom;labelPosition=center;align=center;html=1;outlineConnect=0;fillColor=#CCCCCC;strokeColor=#6881B3;gradientColor=none;gradientDirection=north;strokeWidth=2;shape=mxgraph.networks.user_male;" vertex="1" parent="fC2aXZ93NajQi_3qFE1q-220">
          <mxGeometry x="263.5" width="28" height="70" as="geometry" />
        </mxCell>
        <mxCell id="fC2aXZ93NajQi_3qFE1q-217" value="" style="fontColor=#0066CC;verticalAlign=top;verticalLabelPosition=bottom;labelPosition=center;align=center;html=1;outlineConnect=0;fillColor=#CCCCCC;strokeColor=#6881B3;gradientColor=none;gradientDirection=north;strokeWidth=2;shape=mxgraph.networks.user_male;" vertex="1" parent="fC2aXZ93NajQi_3qFE1q-220">
          <mxGeometry x="173.5" width="28" height="70" as="geometry" />
        </mxCell>
        <mxCell id="fC2aXZ93NajQi_3qFE1q-218" value="" style="fontColor=#0066CC;verticalAlign=top;verticalLabelPosition=bottom;labelPosition=center;align=center;html=1;outlineConnect=0;fillColor=#CCCCCC;strokeColor=#6881B3;gradientColor=none;gradientDirection=north;strokeWidth=2;shape=mxgraph.networks.user_male;" vertex="1" parent="fC2aXZ93NajQi_3qFE1q-220">
          <mxGeometry x="83.5" width="28" height="70" as="geometry" />
        </mxCell>
        <mxCell id="fC2aXZ93NajQi_3qFE1q-219" value="" style="fontColor=#0066CC;verticalAlign=top;verticalLabelPosition=bottom;labelPosition=center;align=center;html=1;outlineConnect=0;fillColor=#CCCCCC;strokeColor=#6881B3;gradientColor=none;gradientDirection=north;strokeWidth=2;shape=mxgraph.networks.user_male;" vertex="1" parent="fC2aXZ93NajQi_3qFE1q-220">
          <mxGeometry width="28" height="70" as="geometry" />
        </mxCell>
        <mxCell id="fC2aXZ93NajQi_3qFE1q-221" value="" style="group" vertex="1" connectable="0" parent="1">
          <mxGeometry x="400" y="350" width="388" height="70" as="geometry" />
        </mxCell>
        <mxCell id="fC2aXZ93NajQi_3qFE1q-222" value="" style="fontColor=#0066CC;verticalAlign=top;verticalLabelPosition=bottom;labelPosition=center;align=center;html=1;outlineConnect=0;fillColor=#CCCCCC;strokeColor=#6881B3;gradientColor=none;gradientDirection=north;strokeWidth=2;shape=mxgraph.networks.user_male;" vertex="1" parent="fC2aXZ93NajQi_3qFE1q-221">
          <mxGeometry x="360" width="28" height="70" as="geometry" />
        </mxCell>
        <mxCell id="fC2aXZ93NajQi_3qFE1q-223" value="" style="fontColor=#0066CC;verticalAlign=top;verticalLabelPosition=bottom;labelPosition=center;align=center;html=1;outlineConnect=0;fillColor=#CCCCCC;strokeColor=#6881B3;gradientColor=none;gradientDirection=north;strokeWidth=2;shape=mxgraph.networks.user_male;" vertex="1" parent="fC2aXZ93NajQi_3qFE1q-221">
          <mxGeometry x="263.5" width="28" height="70" as="geometry" />
        </mxCell>
        <mxCell id="fC2aXZ93NajQi_3qFE1q-224" value="" style="fontColor=#0066CC;verticalAlign=top;verticalLabelPosition=bottom;labelPosition=center;align=center;html=1;outlineConnect=0;fillColor=#CCCCCC;strokeColor=#6881B3;gradientColor=none;gradientDirection=north;strokeWidth=2;shape=mxgraph.networks.user_male;" vertex="1" parent="fC2aXZ93NajQi_3qFE1q-221">
          <mxGeometry x="173.5" width="28" height="70" as="geometry" />
        </mxCell>
        <mxCell id="fC2aXZ93NajQi_3qFE1q-225" value="" style="fontColor=#0066CC;verticalAlign=top;verticalLabelPosition=bottom;labelPosition=center;align=center;html=1;outlineConnect=0;fillColor=#CCCCCC;strokeColor=#6881B3;gradientColor=none;gradientDirection=north;strokeWidth=2;shape=mxgraph.networks.user_male;" vertex="1" parent="fC2aXZ93NajQi_3qFE1q-221">
          <mxGeometry x="83.5" width="28" height="70" as="geometry" />
        </mxCell>
        <mxCell id="fC2aXZ93NajQi_3qFE1q-226" value="" style="fontColor=#0066CC;verticalAlign=top;verticalLabelPosition=bottom;labelPosition=center;align=center;html=1;outlineConnect=0;fillColor=#CCCCCC;strokeColor=#6881B3;gradientColor=none;gradientDirection=north;strokeWidth=2;shape=mxgraph.networks.user_male;" vertex="1" parent="fC2aXZ93NajQi_3qFE1q-221">
          <mxGeometry width="28" height="70" as="geometry" />
        </mxCell>
        <mxCell id="fC2aXZ93NajQi_3qFE1q-227" value="" style="group" vertex="1" connectable="0" parent="1">
          <mxGeometry x="396.5" y="514.5" width="388" height="70" as="geometry" />
        </mxCell>
        <mxCell id="fC2aXZ93NajQi_3qFE1q-228" value="" style="fontColor=#0066CC;verticalAlign=top;verticalLabelPosition=bottom;labelPosition=center;align=center;html=1;outlineConnect=0;fillColor=#CCCCCC;strokeColor=#6881B3;gradientColor=none;gradientDirection=north;strokeWidth=2;shape=mxgraph.networks.user_male;" vertex="1" parent="fC2aXZ93NajQi_3qFE1q-227">
          <mxGeometry x="360" width="28" height="70" as="geometry" />
        </mxCell>
        <mxCell id="fC2aXZ93NajQi_3qFE1q-229" value="" style="fontColor=#0066CC;verticalAlign=top;verticalLabelPosition=bottom;labelPosition=center;align=center;html=1;outlineConnect=0;fillColor=#CCCCCC;strokeColor=#6881B3;gradientColor=none;gradientDirection=north;strokeWidth=2;shape=mxgraph.networks.user_male;" vertex="1" parent="fC2aXZ93NajQi_3qFE1q-227">
          <mxGeometry x="263.5" width="28" height="70" as="geometry" />
        </mxCell>
        <mxCell id="fC2aXZ93NajQi_3qFE1q-230" value="" style="fontColor=#0066CC;verticalAlign=top;verticalLabelPosition=bottom;labelPosition=center;align=center;html=1;outlineConnect=0;fillColor=#CCCCCC;strokeColor=#6881B3;gradientColor=none;gradientDirection=north;strokeWidth=2;shape=mxgraph.networks.user_male;" vertex="1" parent="fC2aXZ93NajQi_3qFE1q-227">
          <mxGeometry x="173.5" width="28" height="70" as="geometry" />
        </mxCell>
        <mxCell id="fC2aXZ93NajQi_3qFE1q-231" value="" style="fontColor=#0066CC;verticalAlign=top;verticalLabelPosition=bottom;labelPosition=center;align=center;html=1;outlineConnect=0;fillColor=#CCCCCC;strokeColor=#6881B3;gradientColor=none;gradientDirection=north;strokeWidth=2;shape=mxgraph.networks.user_male;" vertex="1" parent="fC2aXZ93NajQi_3qFE1q-227">
          <mxGeometry x="83.5" width="28" height="70" as="geometry" />
        </mxCell>
        <mxCell id="fC2aXZ93NajQi_3qFE1q-232" value="" style="fontColor=#0066CC;verticalAlign=top;verticalLabelPosition=bottom;labelPosition=center;align=center;html=1;outlineConnect=0;fillColor=#CCCCCC;strokeColor=#6881B3;gradientColor=none;gradientDirection=north;strokeWidth=2;shape=mxgraph.networks.user_male;" vertex="1" parent="fC2aXZ93NajQi_3qFE1q-227">
          <mxGeometry width="28" height="70" as="geometry" />
        </mxCell>
        <mxCell id="fC2aXZ93NajQi_3qFE1q-234" value="" style="group" vertex="1" connectable="0" parent="1">
          <mxGeometry x="396.5" y="690" width="388" height="70" as="geometry" />
        </mxCell>
        <mxCell id="fC2aXZ93NajQi_3qFE1q-235" value="" style="fontColor=#0066CC;verticalAlign=top;verticalLabelPosition=bottom;labelPosition=center;align=center;html=1;outlineConnect=0;fillColor=#CCCCCC;strokeColor=#6881B3;gradientColor=none;gradientDirection=north;strokeWidth=2;shape=mxgraph.networks.user_male;" vertex="1" parent="fC2aXZ93NajQi_3qFE1q-234">
          <mxGeometry x="360" width="28" height="70" as="geometry" />
        </mxCell>
        <mxCell id="fC2aXZ93NajQi_3qFE1q-236" value="" style="fontColor=#0066CC;verticalAlign=top;verticalLabelPosition=bottom;labelPosition=center;align=center;html=1;outlineConnect=0;fillColor=#CCCCCC;strokeColor=#6881B3;gradientColor=none;gradientDirection=north;strokeWidth=2;shape=mxgraph.networks.user_male;" vertex="1" parent="fC2aXZ93NajQi_3qFE1q-234">
          <mxGeometry x="263.5" width="28" height="70" as="geometry" />
        </mxCell>
        <mxCell id="fC2aXZ93NajQi_3qFE1q-237" value="" style="fontColor=#0066CC;verticalAlign=top;verticalLabelPosition=bottom;labelPosition=center;align=center;html=1;outlineConnect=0;fillColor=#CCCCCC;strokeColor=#6881B3;gradientColor=none;gradientDirection=north;strokeWidth=2;shape=mxgraph.networks.user_male;" vertex="1" parent="fC2aXZ93NajQi_3qFE1q-234">
          <mxGeometry x="173.5" width="28" height="70" as="geometry" />
        </mxCell>
        <mxCell id="fC2aXZ93NajQi_3qFE1q-238" value="" style="fontColor=#0066CC;verticalAlign=top;verticalLabelPosition=bottom;labelPosition=center;align=center;html=1;outlineConnect=0;fillColor=#CCCCCC;strokeColor=#6881B3;gradientColor=none;gradientDirection=north;strokeWidth=2;shape=mxgraph.networks.user_male;" vertex="1" parent="fC2aXZ93NajQi_3qFE1q-234">
          <mxGeometry x="83.5" width="28" height="70" as="geometry" />
        </mxCell>
        <mxCell id="fC2aXZ93NajQi_3qFE1q-239" value="" style="fontColor=#0066CC;verticalAlign=top;verticalLabelPosition=bottom;labelPosition=center;align=center;html=1;outlineConnect=0;fillColor=#CCCCCC;strokeColor=#6881B3;gradientColor=none;gradientDirection=north;strokeWidth=2;shape=mxgraph.networks.user_male;" vertex="1" parent="fC2aXZ93NajQi_3qFE1q-234">
          <mxGeometry width="28" height="70" as="geometry" />
        </mxCell>
        <mxCell id="fC2aXZ93NajQi_3qFE1q-254" value="" style="group" vertex="1" connectable="0" parent="1">
          <mxGeometry x="-115" y="680" width="293" height="70" as="geometry" />
        </mxCell>
        <mxCell id="fC2aXZ93NajQi_3qFE1q-250" value="" style="fontColor=#0066CC;verticalAlign=top;verticalLabelPosition=bottom;labelPosition=center;align=center;html=1;outlineConnect=0;fillColor=#CCCCCC;strokeColor=#6881B3;gradientColor=none;gradientDirection=north;strokeWidth=2;shape=mxgraph.networks.user_male;" vertex="1" parent="fC2aXZ93NajQi_3qFE1q-254">
          <mxGeometry width="28" height="70" as="geometry" />
        </mxCell>
        <mxCell id="fC2aXZ93NajQi_3qFE1q-251" value="" style="fontColor=#0066CC;verticalAlign=top;verticalLabelPosition=bottom;labelPosition=center;align=center;html=1;outlineConnect=0;fillColor=#CCCCCC;strokeColor=#6881B3;gradientColor=none;gradientDirection=north;strokeWidth=2;shape=mxgraph.networks.user_male;" vertex="1" parent="fC2aXZ93NajQi_3qFE1q-254">
          <mxGeometry x="91.5" width="28" height="70" as="geometry" />
        </mxCell>
        <mxCell id="fC2aXZ93NajQi_3qFE1q-252" value="" style="fontColor=#0066CC;verticalAlign=top;verticalLabelPosition=bottom;labelPosition=center;align=center;html=1;outlineConnect=0;fillColor=#CCCCCC;strokeColor=#6881B3;gradientColor=none;gradientDirection=north;strokeWidth=2;shape=mxgraph.networks.user_male;" vertex="1" parent="fC2aXZ93NajQi_3qFE1q-254">
          <mxGeometry x="181" width="28" height="70" as="geometry" />
        </mxCell>
        <mxCell id="fC2aXZ93NajQi_3qFE1q-253" value="" style="fontColor=#0066CC;verticalAlign=top;verticalLabelPosition=bottom;labelPosition=center;align=center;html=1;outlineConnect=0;fillColor=#CCCCCC;strokeColor=#6881B3;gradientColor=none;gradientDirection=north;strokeWidth=2;shape=mxgraph.networks.user_male;" vertex="1" parent="fC2aXZ93NajQi_3qFE1q-254">
          <mxGeometry x="265" width="28" height="70" as="geometry" />
        </mxCell>
        <mxCell id="fC2aXZ93NajQi_3qFE1q-255" value="" style="group" vertex="1" connectable="0" parent="1">
          <mxGeometry x="-120" y="500" width="293" height="70" as="geometry" />
        </mxCell>
        <mxCell id="fC2aXZ93NajQi_3qFE1q-256" value="" style="fontColor=#0066CC;verticalAlign=top;verticalLabelPosition=bottom;labelPosition=center;align=center;html=1;outlineConnect=0;fillColor=#CCCCCC;strokeColor=#6881B3;gradientColor=none;gradientDirection=north;strokeWidth=2;shape=mxgraph.networks.user_male;" vertex="1" parent="fC2aXZ93NajQi_3qFE1q-255">
          <mxGeometry width="28" height="70" as="geometry" />
        </mxCell>
        <mxCell id="fC2aXZ93NajQi_3qFE1q-257" value="" style="fontColor=#0066CC;verticalAlign=top;verticalLabelPosition=bottom;labelPosition=center;align=center;html=1;outlineConnect=0;fillColor=#CCCCCC;strokeColor=#6881B3;gradientColor=none;gradientDirection=north;strokeWidth=2;shape=mxgraph.networks.user_male;" vertex="1" parent="fC2aXZ93NajQi_3qFE1q-255">
          <mxGeometry x="91.5" width="28" height="70" as="geometry" />
        </mxCell>
        <mxCell id="fC2aXZ93NajQi_3qFE1q-258" value="" style="fontColor=#0066CC;verticalAlign=top;verticalLabelPosition=bottom;labelPosition=center;align=center;html=1;outlineConnect=0;fillColor=#CCCCCC;strokeColor=#6881B3;gradientColor=none;gradientDirection=north;strokeWidth=2;shape=mxgraph.networks.user_male;" vertex="1" parent="fC2aXZ93NajQi_3qFE1q-255">
          <mxGeometry x="181" width="28" height="70" as="geometry" />
        </mxCell>
        <mxCell id="fC2aXZ93NajQi_3qFE1q-259" value="" style="fontColor=#0066CC;verticalAlign=top;verticalLabelPosition=bottom;labelPosition=center;align=center;html=1;outlineConnect=0;fillColor=#CCCCCC;strokeColor=#6881B3;gradientColor=none;gradientDirection=north;strokeWidth=2;shape=mxgraph.networks.user_male;" vertex="1" parent="fC2aXZ93NajQi_3qFE1q-255">
          <mxGeometry x="265" width="28" height="70" as="geometry" />
        </mxCell>
        <mxCell id="fC2aXZ93NajQi_3qFE1q-260" value="" style="group" vertex="1" connectable="0" parent="1">
          <mxGeometry x="-120" y="340" width="293" height="70" as="geometry" />
        </mxCell>
        <mxCell id="fC2aXZ93NajQi_3qFE1q-261" value="" style="fontColor=#0066CC;verticalAlign=top;verticalLabelPosition=bottom;labelPosition=center;align=center;html=1;outlineConnect=0;fillColor=#CCCCCC;strokeColor=#6881B3;gradientColor=none;gradientDirection=north;strokeWidth=2;shape=mxgraph.networks.user_male;" vertex="1" parent="fC2aXZ93NajQi_3qFE1q-260">
          <mxGeometry width="28" height="70" as="geometry" />
        </mxCell>
        <mxCell id="fC2aXZ93NajQi_3qFE1q-262" value="" style="fontColor=#0066CC;verticalAlign=top;verticalLabelPosition=bottom;labelPosition=center;align=center;html=1;outlineConnect=0;fillColor=#CCCCCC;strokeColor=#6881B3;gradientColor=none;gradientDirection=north;strokeWidth=2;shape=mxgraph.networks.user_male;" vertex="1" parent="fC2aXZ93NajQi_3qFE1q-260">
          <mxGeometry x="91.5" width="28" height="70" as="geometry" />
        </mxCell>
        <mxCell id="fC2aXZ93NajQi_3qFE1q-263" value="" style="fontColor=#0066CC;verticalAlign=top;verticalLabelPosition=bottom;labelPosition=center;align=center;html=1;outlineConnect=0;fillColor=#CCCCCC;strokeColor=#6881B3;gradientColor=none;gradientDirection=north;strokeWidth=2;shape=mxgraph.networks.user_male;" vertex="1" parent="fC2aXZ93NajQi_3qFE1q-260">
          <mxGeometry x="181" width="28" height="70" as="geometry" />
        </mxCell>
        <mxCell id="fC2aXZ93NajQi_3qFE1q-264" value="" style="fontColor=#0066CC;verticalAlign=top;verticalLabelPosition=bottom;labelPosition=center;align=center;html=1;outlineConnect=0;fillColor=#CCCCCC;strokeColor=#6881B3;gradientColor=none;gradientDirection=north;strokeWidth=2;shape=mxgraph.networks.user_male;" vertex="1" parent="fC2aXZ93NajQi_3qFE1q-260">
          <mxGeometry x="265" width="28" height="70" as="geometry" />
        </mxCell>
        <mxCell id="fC2aXZ93NajQi_3qFE1q-265" value="" style="group" vertex="1" connectable="0" parent="1">
          <mxGeometry x="-120" y="170" width="293" height="70" as="geometry" />
        </mxCell>
        <mxCell id="fC2aXZ93NajQi_3qFE1q-266" value="" style="fontColor=#0066CC;verticalAlign=top;verticalLabelPosition=bottom;labelPosition=center;align=center;html=1;outlineConnect=0;fillColor=#CCCCCC;strokeColor=#6881B3;gradientColor=none;gradientDirection=north;strokeWidth=2;shape=mxgraph.networks.user_male;" vertex="1" parent="fC2aXZ93NajQi_3qFE1q-265">
          <mxGeometry width="28" height="70" as="geometry" />
        </mxCell>
        <mxCell id="fC2aXZ93NajQi_3qFE1q-267" value="" style="fontColor=#0066CC;verticalAlign=top;verticalLabelPosition=bottom;labelPosition=center;align=center;html=1;outlineConnect=0;fillColor=#CCCCCC;strokeColor=#6881B3;gradientColor=none;gradientDirection=north;strokeWidth=2;shape=mxgraph.networks.user_male;" vertex="1" parent="fC2aXZ93NajQi_3qFE1q-265">
          <mxGeometry x="91.5" width="28" height="70" as="geometry" />
        </mxCell>
        <mxCell id="fC2aXZ93NajQi_3qFE1q-268" value="" style="fontColor=#0066CC;verticalAlign=top;verticalLabelPosition=bottom;labelPosition=center;align=center;html=1;outlineConnect=0;fillColor=#CCCCCC;strokeColor=#6881B3;gradientColor=none;gradientDirection=north;strokeWidth=2;shape=mxgraph.networks.user_male;" vertex="1" parent="fC2aXZ93NajQi_3qFE1q-265">
          <mxGeometry x="181" width="28" height="70" as="geometry" />
        </mxCell>
        <mxCell id="fC2aXZ93NajQi_3qFE1q-269" value="" style="fontColor=#0066CC;verticalAlign=top;verticalLabelPosition=bottom;labelPosition=center;align=center;html=1;outlineConnect=0;fillColor=#CCCCCC;strokeColor=#6881B3;gradientColor=none;gradientDirection=north;strokeWidth=2;shape=mxgraph.networks.user_male;" vertex="1" parent="fC2aXZ93NajQi_3qFE1q-265">
          <mxGeometry x="265" width="28" height="70" as="geometry" />
        </mxCell>
        <mxCell id="fC2aXZ93NajQi_3qFE1q-270" value="" style="fontColor=#0066CC;verticalAlign=top;verticalLabelPosition=bottom;labelPosition=center;align=center;html=1;outlineConnect=0;fillColor=#CCCCCC;strokeColor=#6881B3;gradientColor=none;gradientDirection=north;strokeWidth=2;shape=mxgraph.networks.switch;" vertex="1" parent="1">
          <mxGeometry x="240" y="834.8" width="116" height="34.8" as="geometry" />
        </mxCell>
      </root>
    </mxGraphModel>
  </diagram>
</mxfile>
